<svg xmlns="http://www.w3.org/2000/svg" viewBox="0 0 800 620" width="100%" height="100%" style="background: #0d1117; border-radius: 14px;">
  <defs>
    <!-- Gradients -->
    <linearGradient id="primaryGlow" x1="0%" y1="0%" x2="100%" y2="100%">
      <stop offset="0%" stop-color="#00d4ff"/>
      <stop offset="50%" stop-color="#7f00ff"/>
      <stop offset="100%" stop-color="#00d4ff"/>
    </linearGradient>

    <linearGradient id="screenCenterGrad" x1="0%" y1="0%" x2="100%" y2="100%">
      <stop offset="0%" stop-color="#0e1726"/>
      <stop offset="100%" stop-color="#060913"/>
    </linearGradient>

    <linearGradient id="screenSideGrad" x1="0%" y1="0%" x2="0%" y2="100%">
      <stop offset="0%" stop-color="#111927"/>
      <stop offset="100%" stop-color="#090d16"/>
    </linearGradient>

    <linearGradient id="deskBevel" x1="0%" y1="0%" x2="100%" y2="0%">
      <stop offset="0%" stop-color="#161f30"/>
      <stop offset="50%" stop-color="#24334f"/>
      <stop offset="100%" stop-color="#161f30"/>
    </linearGradient>

    <radialGradient id="ambientUnderGlow" cx="50%" cy="50%" r="50%">
      <stop offset="0%" stop-color="#00d4ff" stop-opacity="0.35"/>
      <stop offset="60%" stop-color="#7f00ff" stop-opacity="0.15"/>
      <stop offset="100%" stop-color="transparent" stop-opacity="0"/>
    </radialGradient>

    <!-- Glow Filters -->
    <filter id="neonBlur" x="-30%" y="-30%" width="160%" height="160%">
      <feGaussianBlur stdDeviation="6" result="blur"/>
      <feComposite in="SourceGraphic" in2="blur" operator="over"/>
    </filter>

    <filter id="softGlow" x="-40%" y="-40%" width="180%" height="180%">
      <feGaussianBlur stdDeviation="12" result="blur"/>
      <feComposite in="SourceGraphic" in2="blur" operator="over"/>
    </filter>

    <style><![CDATA[
      @import url('https://fonts.googleapis.com/css2?family=Fira+Code:wght@400;600&family=Orbitron:wght@700&display=swap');

      /* Keyframes & Animations */
      @keyframes floatHolo {
        0% { transform: translateY(0px) rotate(0deg); }
        50% { transform: translateY(-8px) rotate(1deg); }
        100% { transform: translateY(0px) rotate(0deg); }
      }

      @keyframes pulseGlow {
        0%, 100% { opacity: 0.6; filter: drop-shadow(0 0 5px #00d4ff); }
        50% { opacity: 1; filter: drop-shadow(0 0 15px #7f00ff); }
      }

      @keyframes cursorBlink {
        0%, 49% { opacity: 1; }
        50%, 100% { opacity: 0; }
      }

      @keyframes steamFloat {
        0% { opacity: 0; transform: translateY(0) scaleX(0.8); }
        35% { opacity: 0.8; transform: translateY(-8px) scaleX(1.1); }
        75% { opacity: 0.25; transform: translateY(-18px) scaleX(1.4); }
        100% { opacity: 0; transform: translateY(-26px) scaleX(1.8); }
      }

      @keyframes barEqualizer {
        0% { transform: scaleY(0.25); }
        100% { transform: scaleY(1.25); }
      }

      @keyframes typingLeft {
        0% { transform: translate(0, 0); }
        100% { transform: translate(2.5px, 2px); }
      }

      @keyframes typingRight {
        0% { transform: translate(0, 0); }
        100% { transform: translate(-2.5px, 2px); }
      }

      @keyframes scrollLogs {
        0% { transform: translateY(0); }
        100% { transform: translateY(-24px); }
      }

      @keyframes matrixRainDrop {
        0% { transform: translateY(-30px); opacity: 0; }
        20% { opacity: 0.9; }
        80% { opacity: 0.9; }
        100% { transform: translateY(280px); opacity: 0; }
      }

      @keyframes nodeConnectPulse {
        0%, 100% { stroke-opacity: 0.25; }
        50% { stroke-opacity: 0.9; stroke: #00d4ff; }
      }

      /* Applied Classes */
      .anim-holo { animation: floatHolo 6s ease-in-out infinite; }
      .anim-cursor { animation: cursorBlink 0.9s infinite; }
      .anim-steam1 { animation: steamFloat 2.8s infinite; }
      .anim-steam2 { animation: steamFloat 2.8s infinite 0.9s; }
      .anim-steam3 { animation: steamFloat 2.8s infinite 1.8s; }
      .anim-pulse { animation: pulseGlow 4s infinite; }
      .anim-type-l { animation: typingLeft 0.22s ease-in-out infinite alternate; }
      .anim-type-r { animation: typingRight 0.26s ease-in-out infinite alternate; }
      .anim-logs { animation: scrollLogs 3s linear infinite; }
      .anim-node-pulse { animation: nodeConnectPulse 3s ease-in-out infinite; }

      .bar-anim { transform-origin: bottom; animation: barEqualizer 1s ease-in-out infinite alternate; }
      .b1 { animation-delay: 0.1s; animation-duration: 0.6s; }
      .b2 { animation-delay: 0.3s; animation-duration: 0.85s; }
      .b3 { animation-delay: 0.2s; animation-duration: 0.55s; }
      .b4 { animation-delay: 0.4s; animation-duration: 1.0s; }
      .b5 { animation-delay: 0.15s; animation-duration: 0.75s; }
      .b6 { animation-delay: 0.35s; animation-duration: 0.9s; }

      .drop-col1 { animation: matrixRainDrop 4s linear infinite; }
      .drop-col2 { animation: matrixRainDrop 3.2s linear infinite 1s; }
      .drop-col3 { animation: matrixRainDrop 4.5s linear infinite 0.5s; }
      .drop-col4 { animation: matrixRainDrop 3.8s linear infinite 1.8s; }
    ]]></style>
  </defs>

  <!-- Background Cyber Grid & Vignette -->
  <rect width="800" height="620" fill="#0d1117" rx="14"/>
  <rect x="1" y="1" width="798" height="618" fill="none" stroke="#30363d" stroke-width="1.5" rx="14"/>

  <!-- Data Stream Background Grid (SQL, DAX & Python keywords) -->
  <g opacity="0.30" font-family="'Fira Code', monospace" font-size="11" fill="#00d4ff">
    <g class="drop-col1" transform="translate(60, 20)">
      <text y="0">SELECT</text><text y="20">pandas</text><text y="40">DAX</text><text y="60">JOIN</text><text y="80">170K</text>
    </g>
    <g class="drop-col2" transform="translate(180, 10)">
      <text y="0">PowerBI</text><text y="20">seaborn</text><text y="40">GROUP</text><text y="60">KPIs</text><text y="80">SQL</text>
    </g>
    <g class="drop-col3" transform="translate(620, 25)">
      <text y="0">SciPy</text><text y="20">numpy</text><text y="40">WHERE</text><text y="60">charts</text><text y="80">ETL</text>
    </g>
    <g class="drop-col4" transform="translate(720, 15)">
      <text y="0">MySQL</text><text y="20">insight</text><text y="40">clean</text><text y="60">DAX</text><text y="80">merge</text>
    </g>
  </g>

  <!-- Neon Ambient Desk Glow -->
  <ellipse cx="400" cy="460" rx="360" ry="110" fill="url(#ambientUnderGlow)" filter="url(#softGlow)"/>

  <!-- Top Floating Data Analytics Hologram (Data Pipeline & 3D Cube) -->
  <g class="anim-holo" transform="translate(400, 110)">
    <!-- Rotating Halo Orbit -->
    <ellipse cx="0" cy="0" rx="110" ry="24" fill="none" stroke="#00d4ff" stroke-width="1.5" stroke-dasharray="6 8" opacity="0.6"/>
    <ellipse cx="0" cy="0" rx="80" ry="16" fill="none" stroke="#7f00ff" stroke-width="1.5" stroke-dasharray="4 6" opacity="0.8"/>

    <!-- 3D Holographic Data Cube & Pipeline Flow -->
    <g transform="translate(0, -10)">
      <!-- Isometric Data Cube -->
      <path d="M 0 -25 L 25 -12 L 25 15 L 0 28 L -25 15 L -25 -12 Z" fill="#0d1117" stroke="#00d4ff" stroke-width="1.5" opacity="0.8"/>
      <path d="M 0 -25 L 0 28 M -25 -12 L 0 0 L 25 -12" fill="none" stroke="#00d4ff" stroke-width="1.2"/>
      <path d="M 0 0 L 0 28" fill="none" stroke="#7f00ff" stroke-width="1.5"/>
      
      <!-- Flow Nodes (SQL -> Python -> Power BI) -->
      <path d="M -80 0 L -25 0 M 25 0 L 80 0" stroke="#00ff66" stroke-width="1.5" class="anim-node-pulse" fill="none"/>
      
      <circle cx="-80" cy="0" r="12" fill="#0d1117" stroke="#00d4ff" stroke-width="1.5"/>
      <text x="-80" y="3" font-family="'Fira Code', monospace" font-size="7" fill="#00d4ff" text-anchor="middle" font-weight="600">SQL</text>

      <circle cx="80" cy="0" r="12" fill="#0d1117" stroke="#7f00ff" stroke-width="1.5"/>
      <text x="80" y="3" font-family="'Fira Code', monospace" font-size="7" fill="#7f00ff" text-anchor="middle" font-weight="600">BI</text>
    </g>

    <!-- Holographic Badge Label -->
    <rect x="-85" y="32" width="170" height="20" rx="10" fill="#0d1117" stroke="#00d4ff" stroke-width="1" opacity="0.9"/>
    <text x="0" y="46" font-family="'Orbitron', sans-serif" font-size="9" fill="#00d4ff" font-weight="700" text-anchor="middle" letter-spacing="1">DATA PIPELINE // ONLINE</text>
  </g>

  <!-- Battlestation Desk -->
  <g id="deskGroup">
    <!-- Desk Surface with Neon Bevel -->
    <polygon points="50,470 750,470 785,520 15,520" fill="url(#deskBevel)" stroke="#00d4ff" stroke-width="1.5" stroke-opacity="0.5"/>
    <polygon points="15,520 785,520 785,535 15,535" fill="#090d16"/>
    <!-- RGB Edge Underglow Line -->
    <line x1="15" y1="535" x2="785" y2="535" stroke="url(#primaryGlow)" stroke-width="3" filter="url(#neonBlur)" class="anim-pulse"/>
    <!-- Giant Deskmat -->
    <polygon points="110,478 690,478 720,512 80,512" fill="#0a0f18" stroke="#7f00ff" stroke-width="1.2" stroke-opacity="0.6"/>
  </g>

  <!-- Left Auxiliary Monitor (SQL Queries & Database Stream) -->
  <g class="vertical-monitor-left" transform="rotate(4 165 310)">
    <!-- Stand -->
    <rect x="175" y="380" width="14" height="92" fill="#1b2434"/>
    <polygon points="145,468 220,468 206,478 160,478" fill="#101726"/>
    <!-- Bezel -->
    <rect x="105" y="170" width="140" height="240" rx="8" fill="#080c14" stroke="#253553" stroke-width="3"/>
    <!-- Screen Glass -->
    <rect x="111" y="176" width="128" height="228" rx="4" fill="url(#screenSideGrad)"/>
    <!-- Screen Header -->
    <rect x="111" y="176" width="128" height="16" fill="#141c2c"/>
    <circle cx="120" cy="184" r="2.5" fill="#ff5f56"/>
    <circle cx="127" cy="184" r="2.5" fill="#ffbd2e"/>
    <circle cx="134" cy="184" r="2.5" fill="#27c93f"/>
    <text x="180" y="187" fill="#8b949e" font-family="'Fira Code', monospace" font-size="7" text-anchor="middle">mysql_queries.sql</text>
    
    <!-- Scrolling SQL Code -->
    <g font-family="'Fira Code', monospace" font-size="7" fill="#c9d1d9">
      <text x="116" y="202" fill="#ff7b72">SELECT</text>
      <text x="116" y="213" fill="#79c0ff">  v.vendor_name,</text>
      <text x="116" y="224" fill="#79c0ff">  SUM(s.amount)</text>
      <text x="116" y="235" fill="#ff7b72">FROM </text><text x="142" y="235" fill="#a5d6ff">sales_tbl s</text>
      <text x="116" y="246" fill="#ff7b72">JOIN </text><text x="142" y="246" fill="#a5d6ff">vendors v</text>
      <text x="116" y="257" fill="#d2a8ff">  ON s.v_id=v.id</text>
      <text x="116" y="268" fill="#ff7b72">GROUP BY </text><text x="158" y="268" fill="#79c0ff">1</text>
      <text x="116" y="279" fill="#ff7b72">ORDER BY </text><text x="158" y="279" fill="#79c0ff">2 DESC</text>
      
      <line x1="116" y1="288" x2="230" y2="288" stroke="#30363d" stroke-width="1"/>
      
      <!-- Query Output Table mini view -->
      <rect x="116" y="295" width="118" height="95" fill="#070a12" rx="3"/>
      <text x="120" y="307" fill="#00d4ff" font-weight="600">vendor | revenue</text>
      <text x="120" y="320" fill="#7ee787">Vendor_A | $142,500</text>
      <text x="120" y="332" fill="#7ee787">Vendor_B | $98,200</text>
      <text x="120" y="344" fill="#7ee787">Vendor_C | $65,100</text>
      <text x="120" y="356" fill="#7ee787">Vendor_D | $41,800</text>
      <text x="120" y="375" fill="#00d4ff">✓ 172k rows fetched</text>
    </g>
  </g>

  <!-- Central Curved Ultrawide Display (Main Power BI Executive Dashboard) -->
  <g class="center-monitor">
    <!-- Heavy Stand -->
    <polygon points="360,410 440,410 455,475 345,475" fill="#161f30" stroke="#253553" stroke-width="1"/>
    <polygon points="320,470 480,470 495,482 305,482" fill="#0d1422"/>
    <!-- Curved Bezel Frame -->
    <rect x="230" y="160" width="340" height="225" rx="10" fill="#080c14" stroke="#253553" stroke-width="3"/>
    <!-- Curved Display Glass -->
    <rect x="238" y="168" width="324" height="209" rx="6" fill="url(#screenCenterGrad)"/>
    
    <!-- Power BI Titlebar -->
    <rect x="242" y="172" width="316" height="22" rx="3" fill="#131b2c"/>
    <circle cx="254" cy="183" r="3.5" fill="#ff5f56"/>
    <circle cx="265" cy="183" r="3.5" fill="#ffbd2e"/>
    <circle cx="276" cy="183" r="3.5" fill="#27c93f"/>
    <text x="400" y="187" fill="#8b949e" font-family="'Fira Code', monospace" font-size="9" text-anchor="middle">Executive_Analytics_Dashboard.pbix — Power BI</text>

    <!-- Dashboard Content Visuals -->
    <g transform="translate(250, 202)">
      <!-- KPI Cards Row -->
      <g>
        <!-- Card 1 -->
        <rect x="0" y="0" width="95" height="42" rx="4" fill="#0d1522" stroke="#00d4ff" stroke-width="1"/>
        <text x="8" y="14" fill="#8b949e" font-family="'Fira Code', monospace" font-size="7">PROFIT AT RISK</text>
        <text x="8" y="32" fill="#00d4ff" font-family="'Orbitron', sans-serif" font-size="12" font-weight="700">$2.1M</text>

        <!-- Card 2 -->
        <rect x="105" y="0" width="95" height="42" rx="4" fill="#0d1522" stroke="#7f00ff" stroke-width="1"/>
        <text x="113" y="14" fill="#8b949e" font-family="'Fira Code', monospace" font-size="7">LATE DELIVERIES</text>
        <text x="113" y="32" fill="#f43f5e" font-family="'Orbitron', sans-serif" font-size="12" font-weight="700">54.7%</text>

        <!-- Card 3 -->
        <rect x="210" y="0" width="90" height="42" rx="4" fill="#0d1522" stroke="#00ff66" stroke-width="1"/>
        <text x="218" y="14" fill="#8b949e" font-family="'Fira Code', monospace" font-size="7">RECORDS</text>
        <text x="218" y="32" fill="#00ff66" font-family="'Orbitron', sans-serif" font-size="12" font-weight="700">172.7K</text>
      </g>

      <!-- Main Visuals Split (Bar Chart & Line Chart) -->
      <!-- Left Bar Chart -->
      <g transform="translate(0, 52)">
        <rect x="0" y="0" width="145" height="85" rx="4" fill="#0d131f" stroke="#253248" stroke-width="1"/>
        <text x="8" y="14" fill="#8b949e" font-family="'Fira Code', monospace" font-size="7">ORDER VOLUME BY TIER</text>
        
        <rect x="10" y="25" width="100" height="9" rx="2" fill="#00d4ff"/>
        <rect x="10" y="38" width="75" height="9" rx="2" fill="#7f00ff"/>
        <rect x="10" y="51" width="115" height="9" rx="2" fill="#38bdf8"/>
        <rect x="10" y="64" width="50" height="9" rx="2" fill="#a78bfa"/>

        <text x="115" y="32" fill="#c9d1d9" font-family="'Fira Code', monospace" font-size="6">Tier 1</text>
        <text x="90" y="45" fill="#c9d1d9" font-family="'Fira Code', monospace" font-size="6">Tier 2</text>
        <text x="130" y="58" fill="#c9d1d9" font-family="'Fira Code', monospace" font-size="6">Tier 3</text>
      </g>

      <!-- Right Area/Line Chart -->
      <g transform="translate(155, 52)">
        <rect x="0" y="0" width="145" height="85" rx="4" fill="#0d131f" stroke="#253248" stroke-width="1"/>
        <text x="8" y="14" fill="#8b949e" font-family="'Fira Code', monospace" font-size="7">MONTHLY CHURN TREND</text>
        
        <path d="M 10 65 Q 40 20 70 50 T 135 25" fill="none" stroke="#00d4ff" stroke-width="2"/>
        <path d="M 10 65 Q 40 20 70 50 T 135 25 L 135 75 L 10 75 Z" fill="#00d4ff" opacity="0.15"/>
        
        <circle cx="70" cy="50" r="3" fill="#7f00ff"/>
        <circle cx="135" cy="25" r="3" fill="#00ff66"/>
      </g>

      <!-- DAX Formula Editor Window (Bottom) -->
      <g transform="translate(0, 144)">
        <rect x="0" y="0" width="300" height="22" rx="3" fill="#070a12" stroke="#1f2c42" stroke-width="1"/>
        <text x="8" y="14" font-family="'Fira Code', monospace" font-size="8">
          <tspan fill="#ff7b72">Late_Rate</tspan> <tspan fill="#c9d1d9">=</tspan> 
          <tspan fill="#79c0ff"> DIVIDE</tspan><tspan fill="#c9d1d9">(</tspan>
          <tspan fill="#d2a8ff">CALCULATE</tspan><tspan fill="#c9d1d9">(COUNT(Orders), Status="Late"), </tspan>
          <tspan fill="#d2a8ff">COUNT</tspan><tspan fill="#c9d1d9">(Orders))</tspan>
        </text>
        <rect x="285" y="5" width="6" height="12" fill="#00d4ff" class="anim-cursor"/>
      </g>
    </g>
  </g>

  <!-- Right Auxiliary Monitor (Python EDA & Correlation Matrix) -->
  <g class="vertical-monitor-right" transform="rotate(-4 635 310)">
    <!-- Stand -->
    <rect x="610" y="380" width="14" height="92" fill="#1b2434"/>
    <polygon points="580,468 655,468 641,478 595,478" fill="#101726"/>
    <!-- Bezel -->
    <rect x="555" y="170" width="140" height="240" rx="8" fill="#080c14" stroke="#253553" stroke-width="3"/>
    <!-- Screen Glass -->
    <rect x="561" y="176" width="128" height="228" rx="4" fill="url(#screenSideGrad)"/>
    <!-- Screen Header -->
    <rect x="561" y="176" width="128" height="16" fill="#141c2c"/>
    <circle cx="570" cy="184" r="2.5" fill="#ff5f56"/>
    <circle cx="577" cy="184" r="2.5" fill="#ffbd2e"/>
    <circle cx="584" cy="184" r="2.5" fill="#27c93f"/>
    <text x="630" y="187" fill="#8b949e" font-family="'Fira Code', monospace" font-size="7" text-anchor="middle">data_eda.ipynb</text>

    <!-- Jupyter Code Snippet -->
    <g transform="translate(568, 200)" font-family="'Fira Code', monospace" font-size="7">
      <text y="0" fill="#79c0ff">import</text><text x="32" y="0" fill="#c9d1d9"> pandas as pd</text>
      <text y="12" fill="#79c0ff">import</text><text x="32" y="12" fill="#c9d1d9"> seaborn as sns</text>
      <text y="28" fill="#c9d1d9">df = pd.read_csv("data")</text>
      <text y="40" fill="#d2a8ff">sns.heatmap</text><text x="56" y="40" fill="#c9d1d9">(df.corr())</text>
    </g>

    <!-- Seaborn Correlation Matrix Heatmap Visualizer -->
    <g transform="translate(575, 255)">
      <rect x="0" y="0" width="100" height="80" fill="#070a12" rx="3" stroke="#1f2c42"/>
      
      <!-- Grid Cells with correlation colors -->
      <rect x="5" y="5" width="28" height="22" fill="#00d4ff" rx="1"/>
      <rect x="36" y="5" width="28" height="22" fill="#1e293b" rx="1"/>
      <rect x="67" y="5" width="28" height="22" fill="#7f00ff" rx="1"/>

      <rect x="5" y="30" width="28" height="22" fill="#1e293b" rx="1"/>
      <rect x="36" y="30" width="28" height="22" fill="#00d4ff" rx="1"/>
      <rect x="67" y="30" width="28" height="22" fill="#f43f5e" rx="1"/>

      <rect x="5" y="55" width="28" height="22" fill="#7f00ff" rx="1"/>
      <rect x="36" y="55" width="28" height="22" fill="#f43f5e" rx="1"/>
      <rect x="67" y="55" width="28" height="22" fill="#00d4ff" rx="1"/>

      <text x="50" y="92" fill="#8b949e" font-family="'Fira Code', monospace" font-size="7" text-anchor="middle">CORRELATION MATRIX</text>
    </g>

    <!-- Stat Bar Gauges -->
    <g transform="translate(575, 360)">
      <rect x="0" y="0" width="100" height="4" rx="2" fill="#21262d"/>
      <rect x="0" y="0" width="85" height="4" rx="2" fill="#00ff66"/>
      <text x="0" y="14" fill="#8b949e" font-family="'Fira Code', monospace" font-size="6">HYPOTHESIS TEST: p &lt; 0.05</text>
    </g>
  </g>

  <!-- Mechanical Keyboard, Mouse, Coffee Mug -->
  <g id="peripherals">
    <!-- RGB Mechanical Keyboard -->
    <g transform="translate(285, 482)">
      <polygon points="10,0 220,0 230,28 0,28" fill="#121824" stroke="#00d4ff" stroke-width="1.2"/>
      <line x1="5" y1="28" x2="225" y2="28" stroke="#00d4ff" stroke-width="2.5" filter="url(#neonBlur)" opacity="0.8"/>
      <!-- Keycap rows -->
      <rect x="14" y="4" width="202" height="4" fill="#30363d" rx="1.5"/>
      <rect x="12" y="10" width="206" height="4" fill="#7f00ff" rx="1.5" opacity="0.85"/>
      <rect x="10" y="16" width="210" height="4" fill="#30363d" rx="1.5"/>
      <rect x="8" y="22" width="214" height="4" fill="#00d4ff" rx="1.5"/>
    </g>

    <!-- Ergonomic Mouse -->
    <g transform="translate(560, 488)">
      <ellipse cx="18" cy="14" rx="14" ry="20" fill="#1c2434" stroke="#253553" stroke-width="1"/>
      <line x1="18" y1="4" x2="18" y2="12" stroke="#00d4ff" stroke-width="2" filter="url(#neonBlur)"/>
    </g>

    <!-- Hot Coffee Mug with Rising Animated Steam -->
    <g transform="translate(210, 478)">
      <rect x="0" y="6" width="22" height="26" rx="4" fill="#1a2334" stroke="#7f00ff" stroke-width="1.5"/>
      <path d="M 0 12 C -8 12, -8 22, 0 22" fill="none" stroke="#7f00ff" stroke-width="1.8"/>
      <!-- <DATA/> branding on mug -->
      <text x="1" y="22" fill="#00d4ff" font-family="'Fira Code', monospace" font-size="6" font-weight="600">&lt;DATA/&gt;</text>
      <!-- Steam Lines -->
      <path d="M 6 4 C 4 -4, 10 -10, 7 -18" fill="none" stroke="#00d4ff" stroke-width="1.5" stroke-linecap="round" class="anim-steam1"/>
      <path d="M 12 4 C 15 -5, 9 -12, 14 -22" fill="none" stroke="#7f00ff" stroke-width="1.5" stroke-linecap="round" class="anim-steam2"/>
      <path d="M 17 4 C 19 -3, 15 -9, 18 -16" fill="none" stroke="#00d4ff" stroke-width="1.2" stroke-linecap="round" class="anim-steam3"/>
    </g>
  </g>

  <!-- The Data Analyst Figure (Ergonomic Chair, Cyber Hoodie & Headset) -->
  <g id="coderCharacter">
    <!-- Gaming Chair Backrest -->
    <path d="M 330 340 C 330 270, 470 270, 470 340 L 485 535 L 315 535 Z" fill="#0c111a" stroke="#1f2c42" stroke-width="2"/>
    <path d="M 360 290 L 440 290 L 448 350 L 352 350 Z" fill="#141c2c" stroke="#00d4ff" stroke-width="1" stroke-opacity="0.4"/>
    <circle cx="380" cy="315" r="4.5" fill="#00d4ff" opacity="0.6"/>
    <circle cx="420" cy="315" r="4.5" fill="#00d4ff" opacity="0.6"/>

    <!-- Analyst Body (Cyberpunk Hoodie) -->
    <g class="coder-torso">
      <path d="M 350 435 C 350 375, 370 355, 400 355 C 430 355, 450 375, 450 435 L 475 540 L 325 540 Z" fill="#141a26" stroke="#253248" stroke-width="1.5"/>
      <!-- Glowing Seam Trims -->
      <path d="M 390 385 L 375 525" stroke="#00d4ff" stroke-width="1.8" stroke-dasharray="4 2" opacity="0.75"/>
      <path d="M 410 385 L 425 525" stroke="#7f00ff" stroke-width="1.8" stroke-dasharray="4 2" opacity="0.75"/>

      <!-- Left Arm & Typing Motion -->
      <g>
        <path d="M 350 415 C 330 445, 335 486, 365 492" fill="none" stroke="#1a2233" stroke-width="18" stroke-linecap="round"/>
        <circle cx="365" cy="492" r="7.5" fill="#00d4ff" opacity="0.7"/>
        <circle cx="373" cy="493" r="5.5" fill="#e2e8f0" class="anim-type-l"/>
      </g>

      <!-- Right Arm & Typing Motion -->
      <g>
        <path d="M 450 415 C 470 445, 465 486, 435 492" fill="none" stroke="#1a2233" stroke-width="18" stroke-linecap="round"/>
        <circle cx="435" cy="492" r="7.5" fill="#7f00ff" opacity="0.7"/>
        <circle cx="427" cy="493" r="5.5" fill="#e2e8f0" class="anim-type-r"/>
      </g>

      <!-- Head & Cyber Headset -->
      <g>
        <ellipse cx="400" cy="340" rx="27" ry="33" fill="#0d131f"/>
        <!-- Cyber Over-Ear Headset -->
        <path d="M 368 340 C 368 295, 432 295, 432 340" fill="none" stroke="#00d4ff" stroke-width="5" stroke-linecap="round"/>
        <rect x="364" y="327" width="10" height="25" rx="4" fill="#00d4ff" filter="url(#neonBlur)"/>
        <rect x="426" y="327" width="10" height="25" rx="4" fill="#7f00ff" filter="url(#neonBlur)"/>
        <!-- Glowing Visor Reflection -->
        <path d="M 383 335 Q 400 331 417 335" fill="none" stroke="#00d4ff" stroke-width="3" stroke-linecap="round" filter="url(#neonBlur)"/>
      </g>
    </g>
  </g>

  <!-- Floating Hologram Cards around Battlestation -->
  <!-- Left Card: MySQL ETL -->
  <g transform="translate(60, 420)">
    <rect width="110" height="42" rx="6" fill="#0d1117" stroke="#30363d" stroke-width="1.2" opacity="0.9"/>
    <text x="12" y="18" fill="#58a6ff" font-family="'Orbitron', sans-serif" font-size="8" font-weight="700">MYSQL // ETL</text>
    <rect x="12" y="25" width="86" height="5" rx="2.5" fill="#21262d"/>
    <rect x="12" y="25" width="76" height="5" rx="2.5" fill="#238636"/>
    <text x="12" y="38" fill="#8b949e" font-family="'Fira Code', monospace" font-size="7">PIPELINE: ACTIVE</text>
  </g>

  <!-- Right Card: Power BI DAX KPIs -->
  <g transform="translate(630, 420)">
    <rect width="115" height="42" rx="6" fill="#0d1117" stroke="#30363d" stroke-width="1.2" opacity="0.9"/>
    <text x="12" y="18" fill="#00d4ff" font-family="'Orbitron', sans-serif" font-size="8" font-weight="700">POWER BI // DAX</text>
    <text x="12" y="34" fill="#ffffff" font-family="'Fira Code', monospace" font-size="11" font-weight="600">99.4% ACC</text>
    <circle cx="95" cy="30" r="4" fill="#238636" filter="url(#neonBlur)"/>
  </g>

</svg>
